<svg width="28" height="28" viewBox="0 0 28 28" fill="none" xmlns="http://www.w3.org/2000/svg">
<path d="M8.78 14.5536H9.776C10.745 14.5536 11.3585 15.1206 11.366 15.9036C11.378 16.7091 10.7255 17.2821 9.737 17.2821C8.84 17.2761 8.1815 16.7946 8.135 16.1481H6.5C6.545 17.5191 7.6865 18.6801 9.7295 18.6801C11.5895 18.6801 13.157 17.6901 13.1375 15.9831C13.118 14.5536 12.017 13.9131 11.1995 13.8351V13.7421C11.8595 13.6371 12.887 12.9516 12.8615 11.6796C12.842 10.3206 11.6615 9.32457 9.782 9.33207C7.817 9.33957 6.7175 10.4331 6.671 11.8371H8.3255C8.3585 11.2506 8.9 10.7106 9.7295 10.7106C10.5275 10.7106 11.1215 11.2056 11.1215 11.9301C11.1275 12.6486 10.547 13.1826 9.7295 13.1826H8.7815L8.78 14.5536ZM14.189 9.50307V18.5016H17.4725C20.1875 18.5016 21.5 16.8411 21.5 13.9791C21.5 11.1381 20.2085 9.50307 17.4725 9.50307H14.189ZM15.9695 10.9536H17.2355C18.9035 10.9536 19.667 11.9826 19.667 14.0136C19.667 16.0431 18.9095 17.0436 17.2355 17.0436H15.9695V10.9536Z" fill="#1C1C1C"/>
<path d="M23 6.5C23.3978 6.5 23.7794 6.65804 24.0607 6.93934C24.342 7.22064 24.5 7.60218 24.5 8V20C24.5 20.3978 24.342 20.7794 24.0607 21.0607C23.7794 21.342 23.3978 21.5 23 21.5H5C4.60218 21.5 4.22064 21.342 3.93934 21.0607C3.65804 20.7794 3.5 20.3978 3.5 20V8C3.5 7.60218 3.65804 7.22064 3.93934 6.93934C4.22064 6.65804 4.60218 6.5 5 6.5H23ZM5 5C4.20435 5 3.44129 5.31607 2.87868 5.87868C2.31607 6.44129 2 7.20435 2 8L2 20C2 20.7956 2.31607 21.5587 2.87868 22.1213C3.44129 22.6839 4.20435 23 5 23H23C23.7956 23 24.5587 22.6839 25.1213 22.1213C25.6839 21.5587 26 20.7956 26 20V8C26 7.20435 25.6839 6.44129 25.1213 5.87868C24.5587 5.31607 23.7956 5 23 5H5Z" fill="#1C1C1C"/>
</svg>
