<svg width="28" height="28" viewBox="0 0 28 28" fill="none" xmlns="http://www.w3.org/2000/svg">
<path d="M23.5505 9.74732C23.4079 9.60063 23.2382 9.4843 23.0513 9.40506C22.8644 9.32583 22.6639 9.28526 22.4615 9.28571H19.3846V8.5C19.3846 7.04131 18.8173 5.64236 17.8075 4.61091C16.7977 3.57946 15.4281 3 14 3C12.5719 3 11.2023 3.57946 10.1925 4.61091C9.18269 5.64236 8.61538 7.04131 8.61538 8.5V9.28571H5.53846C5.13044 9.28571 4.73912 9.45128 4.4506 9.74598C4.16209 10.0407 4 10.4404 4 10.8571V21.4643C4 23.3795 5.58654 25 7.46154 25H20.5385C21.4454 25.0003 22.3165 24.6381 22.9654 23.9908C23.2919 23.6726 23.552 23.2901 23.7298 22.8665C23.9076 22.4428 23.9995 21.9867 24 21.5257V10.8571C24.0006 10.651 23.9612 10.4467 23.8841 10.2562C23.8069 10.0657 23.6935 9.89277 23.5505 9.74732ZM17.6774 14.8839L13.3697 20.3839C13.299 20.4742 13.2096 20.5474 13.108 20.5984C13.0063 20.6493 12.8949 20.6767 12.7817 20.6786H12.7692C12.6581 20.6786 12.5483 20.654 12.4474 20.6065C12.3465 20.5591 12.2568 20.4898 12.1846 20.4036L10.3385 18.1996C10.2728 18.1212 10.2229 18.0304 10.1916 17.9323C10.1603 17.8341 10.1483 17.7307 10.1561 17.6278C10.164 17.5249 10.1916 17.4247 10.2374 17.3327C10.2832 17.2407 10.3463 17.1589 10.4231 17.0918C10.4998 17.0247 10.5888 16.9738 10.6849 16.9418C10.7809 16.9098 10.8822 16.8975 10.9829 16.9056C11.0836 16.9136 11.1818 16.9418 11.2718 16.9886C11.3619 17.0354 11.442 17.0998 11.5077 17.1782L12.75 18.6608L16.4764 13.9018C16.6039 13.739 16.7895 13.6346 16.9924 13.6116C17.1953 13.5885 17.3988 13.6488 17.5582 13.779C17.7176 13.9093 17.8198 14.0988 17.8423 14.306C17.8648 14.5133 17.8059 14.7211 17.6784 14.8839H17.6774ZM17.8461 9.28571H10.1538V8.5C10.1538 7.45808 10.5591 6.45883 11.2804 5.72208C12.0016 4.98533 12.9799 4.57143 14 4.57143C15.0201 4.57143 15.9983 4.98533 16.7196 5.72208C17.4409 6.45883 17.8461 7.45808 17.8461 8.5V9.28571Z" fill="#252525"/>
</svg>
