<svg width="28" height="28" viewBox="0 0 28 28" fill="none" xmlns="http://www.w3.org/2000/svg">
<path fill-rule="evenodd" clip-rule="evenodd" d="M11.2804 5.72208C12.0017 4.98533 12.9799 4.57143 14 4.57143C15.0201 4.57143 15.9983 4.98533 16.7196 5.72208C17.4409 6.45883 17.8462 7.45808 17.8462 8.5V9.28571H10.1538V8.5C10.1538 7.45808 10.5591 6.45883 11.2804 5.72208ZM8.61538 9.28571V8.5C8.61538 7.04131 9.18269 5.64236 10.1925 4.61091C11.2023 3.57946 12.5719 3 14 3C15.4281 3 16.7977 3.57946 17.8075 4.61091C18.8173 5.64236 19.3846 7.04131 19.3846 8.5V9.28571H22.4615C22.8696 9.28571 23.2609 9.45127 23.5494 9.74598C23.8379 10.0407 24 10.4404 24 10.8571V21.5257C24 23.4674 22.3944 25 20.5385 25H7.46154C5.58286 25 4 23.3832 4 21.4643V10.8571C4 10.4404 4.16209 10.0407 4.45061 9.74598C4.73912 9.45128 5.13044 9.28571 5.53846 9.28571H8.61538ZM18.6154 10.8571H22.4615V21.5257C22.4615 22.5539 21.5902 23.4286 20.5385 23.4286H7.46154C6.43253 23.4286 5.53846 22.5153 5.53846 21.4643L5.53846 10.8571H9.38462H18.6154ZM14.7692 14C14.7692 13.5661 14.4248 13.2143 14 13.2143C13.5752 13.2143 13.2308 13.5661 13.2308 14V16.3571H10.9231C10.4982 16.3571 10.1538 16.7089 10.1538 17.1429C10.1538 17.5768 10.4982 17.9286 10.9231 17.9286H13.2308V20.2857C13.2308 20.7197 13.5752 21.0714 14 21.0714C14.4248 21.0714 14.7692 20.7197 14.7692 20.2857V17.9286H17.0769C17.5018 17.9286 17.8462 17.5768 17.8462 17.1429C17.8462 16.7089 17.5018 16.3571 17.0769 16.3571H14.7692V14Z" fill="#C0FF0D"/>
</svg>
