<svg width="12" height="16" viewBox="0 0 12 16" fill="none" xmlns="http://www.w3.org/2000/svg">
<path fill-rule="evenodd" clip-rule="evenodd" d="M5.6326 1.00637C5.83547 0.807122 6.16439 0.807122 6.36726 1.00637L8.96466 3.55739C9.16753 3.75664 9.16753 4.07968 8.96466 4.27893C8.76179 4.47817 8.43287 4.47817 8.23 4.27893L6.51941 2.59888V10.0725C6.51941 10.3543 6.28683 10.5827 5.99993 10.5827C5.71303 10.5827 5.48045 10.3543 5.48045 10.0725V2.59888L3.76986 4.27893C3.56699 4.47817 3.23807 4.47817 3.0352 4.27893C2.83233 4.07968 2.83233 3.75664 3.0352 3.55739L5.6326 1.00637ZM2.10383 6.46918C1.89716 6.46918 1.69897 6.54981 1.55283 6.69333C1.4067 6.83685 1.32461 7.03151 1.32461 7.23448V13.3569C1.32461 13.5599 1.4067 13.7546 1.55283 13.8981C1.69897 14.0416 1.89716 14.1222 2.10383 14.1222H9.89603C10.1027 14.1222 10.3009 14.0416 10.447 13.8981C10.5932 13.7546 10.6753 13.5599 10.6753 13.3569V7.23448C10.6753 7.03151 10.5932 6.83685 10.447 6.69333C10.3009 6.54981 10.1027 6.46918 9.89603 6.46918H8.59733C8.31043 6.46918 8.07785 6.24075 8.07785 5.95897C8.07785 5.6772 8.31043 5.44877 8.59733 5.44877H9.89603C10.3782 5.44877 10.8407 5.63691 11.1817 5.97179C11.5227 6.30668 11.7142 6.76088 11.7142 7.23448V13.3569C11.7142 13.8305 11.5227 14.2847 11.1817 14.6196C10.8407 14.9545 10.3782 15.1426 9.89603 15.1426H2.10383C1.62161 15.1426 1.15915 14.9545 0.818178 14.6196C0.477202 14.2847 0.285645 13.8305 0.285645 13.3569V7.23448C0.285645 6.76088 0.477202 6.30668 0.818178 5.97179C1.15915 5.63691 1.62161 5.44877 2.10383 5.44877H3.40253C3.68943 5.44877 3.92201 5.6772 3.92201 5.95897C3.92201 6.24075 3.68943 6.46918 3.40253 6.46918H2.10383Z" fill="white"/>
</svg>
