<svg width="12" height="16" viewBox="0 0 12 16" fill="none" xmlns="http://www.w3.org/2000/svg">
<path fill-rule="evenodd" clip-rule="evenodd" d="M5.63272 1.00637C5.83559 0.807122 6.16451 0.807122 6.36738 1.00637L8.96478 3.55739C9.16765 3.75664 9.16765 4.07968 8.96478 4.27893C8.76191 4.47817 8.433 4.47817 8.23013 4.27893L6.51953 2.59888V10.0725C6.51953 10.3543 6.28695 10.5827 6.00005 10.5827C5.71315 10.5827 5.48057 10.3543 5.48057 10.0725V2.59888L3.76998 4.27893C3.56711 4.47817 3.23819 4.47817 3.03532 4.27893C2.83245 4.07968 2.83245 3.75664 3.03532 3.55739L5.63272 1.00637ZM2.10395 6.46918C1.89729 6.46918 1.69909 6.54981 1.55296 6.69333C1.40682 6.83685 1.32473 7.03151 1.32473 7.23448V13.3569C1.32473 13.5599 1.40682 13.7546 1.55296 13.8981C1.69909 14.0416 1.89729 14.1222 2.10395 14.1222H9.89616C10.1028 14.1222 10.301 14.0416 10.4471 13.8981C10.5933 13.7546 10.6754 13.5599 10.6754 13.3569V7.23448C10.6754 7.03151 10.5933 6.83685 10.4471 6.69333C10.301 6.54981 10.1028 6.46918 9.89616 6.46918H8.59746C8.31055 6.46918 8.07797 6.24075 8.07797 5.95897C8.07797 5.6772 8.31055 5.44877 8.59746 5.44877H9.89616C10.3784 5.44877 10.8408 5.63691 11.1818 5.97179C11.5228 6.30668 11.7143 6.76088 11.7143 7.23448V13.3569C11.7143 13.8305 11.5228 14.2847 11.1818 14.6196C10.8408 14.9545 10.3784 15.1426 9.89616 15.1426H2.10395C1.62174 15.1426 1.15927 14.9545 0.8183 14.6196C0.477324 14.2847 0.285767 13.8305 0.285767 13.3569V7.23448C0.285767 6.76088 0.477324 6.30668 0.8183 5.97179C1.15927 5.63691 1.62174 5.44877 2.10395 5.44877H3.40265C3.68955 5.44877 3.92213 5.6772 3.92213 5.95897C3.92213 6.24075 3.68955 6.46918 3.40265 6.46918H2.10395Z" fill="#1C1C1C"/>
</svg>
