<svg width="24" height="24" viewBox="0 0 24 24" fill="none" xmlns="http://www.w3.org/2000/svg">
<path d="M19.9702 6.33929L13.3933 2.38839C12.5365 1.87054 11.4678 1.87054 10.6111 2.38839L4.03413 6.33929C3.39808 6.71875 3 7.42857 3 8.1875V15.8125C3 16.5714 3.39375 17.2812 4.02981 17.6607L10.6067 21.6116C11.0178 21.8571 11.4721 21.9866 11.9351 21.9955C11.9567 21.9955 11.9784 22 12 22C12.0216 22 12.0433 22 12.0649 21.9955C12.5236 21.9866 12.9822 21.8571 13.3933 21.6116L19.9702 17.6607C20.6063 17.2768 21 16.5714 21 15.8125V8.1875C21 7.42857 20.6019 6.71875 19.9702 6.33929ZM11.3034 3.625C11.5197 3.49554 11.7577 3.43304 12 3.43304C12.2423 3.43304 12.4803 3.49554 12.6966 3.625L18.8928 7.34821L12 11.5268L5.10721 7.34375L11.3034 3.625ZM4.72644 16.4286C4.51442 16.2991 4.38462 16.0625 4.38462 15.8125V8.5625L11.3077 12.7634V20.375C11.3077 20.375 11.3077 20.375 11.3034 20.375L4.72644 16.4286ZM19.2736 16.4286L12.6966 20.3795H12.6923V12.7634L19.6154 8.5625V15.808C19.6154 16.0625 19.4856 16.2991 19.2736 16.4286Z" fill="#1C1C1C"/>
</svg>
