<svg width="24" height="24" viewBox="0 0 24 24" fill="none" xmlns="http://www.w3.org/2000/svg">
<path d="M19.5898 6.66262L13.3261 2.93749C12.5102 2.44922 11.4923 2.44922 10.6764 2.93749L4.41262 6.66262C3.80686 7.0204 3.42773 7.68966 3.42773 8.40522V15.5945C3.42773 16.3101 3.80273 16.9793 4.4085 17.3371L10.6722 21.0622C11.0637 21.2937 11.4964 21.4158 11.9373 21.4242C11.958 21.4242 11.9786 21.4284 11.9992 21.4284C12.0198 21.4284 12.0404 21.4284 12.061 21.4242C12.4978 21.4158 12.9346 21.2937 13.3261 21.0622L19.5898 17.3371C20.1956 16.9751 20.5706 16.3101 20.5706 15.5945V8.40522C20.5706 7.68966 20.1915 7.0204 19.5898 6.66262ZM11.3357 4.10343C11.5417 3.98137 11.7684 3.92244 11.9992 3.92244C12.2299 3.92244 12.4566 3.98137 12.6626 4.10343L18.5637 7.61389L11.9992 11.5537L5.4346 7.60968L11.3357 4.10343ZM5.07197 16.1754C4.87004 16.0533 4.74642 15.8302 4.74642 15.5945V8.75879L11.3398 12.7196V19.8963C11.3398 19.8963 11.3398 19.8963 11.3357 19.8963L5.07197 16.1754ZM18.9264 16.1754L12.6626 19.9005H12.6585V12.7196L19.2519 8.75879V15.5903C19.2519 15.8302 19.1283 16.0533 18.9264 16.1754Z" fill="white"/>
</svg>
