<svg width="28" height="28" viewBox="0 0 28 28" fill="none" xmlns="http://www.w3.org/2000/svg">
<path d="M14 25C13.6295 24.9995 13.2676 24.8883 12.9616 24.6809C8.4278 21.6244 6.46463 19.5286 5.38181 18.2184C3.07424 15.4254 1.96949 12.558 2.00064 9.45276C2.03698 5.89438 4.91164 3 8.40876 3C10.9517 3 12.713 4.42255 13.7387 5.60734C13.7712 5.6445 13.8113 5.67429 13.8564 5.69471C13.9015 5.71512 13.9504 5.72569 14 5.72569C14.0496 5.72569 14.0985 5.71512 14.1436 5.69471C14.1887 5.67429 14.2288 5.6445 14.2613 5.60734C15.287 4.42141 17.0483 3 19.5912 3C23.0884 3 25.963 5.89438 25.9994 9.45333C26.0305 12.5591 24.9246 15.4266 22.6182 18.219C21.5354 19.5292 19.5722 21.6249 15.0384 24.6815C14.7323 24.8887 14.3705 24.9997 14 25Z" fill="white"/>
</svg>
