<svg width="24" height="24" viewBox="0 0 24 24" fill="none" xmlns="http://www.w3.org/2000/svg">
<path d="M12.0001 20C11.7275 20 11.4593 19.9208 11.2213 19.7667C9.59445 18.7042 7.23208 17.0583 5.53603 15.0667C3.80535 13.0375 2.97463 10.95 3.00059 8.69167C3.02655 6.10417 5.18556 4 7.80753 4C9.88867 4 11.2689 5.22917 12.0001 6.125C12.7313 5.22917 14.1115 4 16.1926 4C18.8146 4 20.9693 6.10417 20.9996 8.69167C21.0212 10.95 20.1948 13.0375 18.4642 15.0667C16.7681 17.0583 14.4057 18.7042 12.7789 19.7667C12.5409 19.925 12.2727 20 12.0001 20ZM7.80753 5.33333C5.94273 5.33333 4.40676 6.84583 4.38513 8.70833C4.33753 13.0667 8.20991 16.1917 12.0001 18.6667C15.7903 16.1875 19.6626 13.0667 19.615 8.70833C19.5934 6.85 18.0618 5.33333 16.1926 5.33333C13.8562 5.33333 12.6275 7.60833 12.6188 7.63333C12.502 7.85833 12.264 8 12.0001 8C11.7362 8 11.4982 7.85833 11.3814 7.62917C11.3684 7.60833 10.1396 5.33333 7.80753 5.33333Z" fill="white"/>
</svg>
