<svg width="24" height="24" viewBox="0 0 24 24" fill="none" xmlns="http://www.w3.org/2000/svg">
<path fill-rule="evenodd" clip-rule="evenodd" d="M5.63636 1.71429C4.63221 1.71429 3.81818 2.4818 3.81818 3.42857V20.5714C3.81818 21.5182 4.63221 22.2857 5.63636 22.2857H18.3636C19.3678 22.2857 20.1818 21.5182 20.1818 20.5714V3.42857C20.1818 2.4818 19.3678 1.71429 18.3636 1.71429H5.63636ZM2 3.42857C2 1.53502 3.62806 0 5.63636 0H18.3636C20.3719 0 22 1.53502 22 3.42857V20.5714C22 22.465 20.3719 24 18.3636 24H5.63636C3.62806 24 2 22.465 2 20.5714V3.42857Z" fill="white"/>
<path fill-rule="evenodd" clip-rule="evenodd" d="M6.54545 5.14286C6.54545 4.66947 6.95247 4.28571 7.45455 4.28571H16.5455C17.0475 4.28571 17.4545 4.66947 17.4545 5.14286C17.4545 5.61624 17.0475 6 16.5455 6H7.45455C6.95247 6 6.54545 5.61624 6.54545 5.14286Z" fill="white"/>
<path fill-rule="evenodd" clip-rule="evenodd" d="M6.54545 9.42857C6.54545 8.95518 6.95247 8.57143 7.45455 8.57143H16.5455C17.0475 8.57143 17.4545 8.95518 17.4545 9.42857C17.4545 9.90196 17.0475 10.2857 16.5455 10.2857H7.45455C6.95247 10.2857 6.54545 9.90196 6.54545 9.42857Z" fill="white"/>
<path fill-rule="evenodd" clip-rule="evenodd" d="M6.54545 13.7143C6.54545 13.2409 6.95247 12.8571 7.45455 12.8571H12C12.5021 12.8571 12.9091 13.2409 12.9091 13.7143C12.9091 14.1877 12.5021 14.5714 12 14.5714H7.45455C6.95247 14.5714 6.54545 14.1877 6.54545 13.7143Z" fill="white"/>
</svg>
