<svg width="24" height="24" viewBox="0 0 24 24" fill="none" xmlns="http://www.w3.org/2000/svg">
<path fill-rule="evenodd" clip-rule="evenodd" d="M6.90909 3.42857C6.10577 3.42857 5.45455 4.06816 5.45455 4.85714V19.1429C5.45455 19.9318 6.10577 20.5714 6.90909 20.5714H17.0909C17.8942 20.5714 18.5455 19.9318 18.5455 19.1429V4.85714C18.5455 4.06816 17.8942 3.42857 17.0909 3.42857H6.90909ZM4 4.85714C4 3.27919 5.30244 2 6.90909 2H17.0909C18.6976 2 20 3.27919 20 4.85714V19.1429C20 20.7208 18.6976 22 17.0909 22H6.90909C5.30244 22 4 20.7208 4 19.1429V4.85714Z" fill="#1C1C1C"/>
<path fill-rule="evenodd" clip-rule="evenodd" d="M7.63636 6.28571C7.63636 5.89123 7.96197 5.57143 8.36364 5.57143H15.6364C16.038 5.57143 16.3636 5.89123 16.3636 6.28571C16.3636 6.6802 16.038 7 15.6364 7H8.36364C7.96197 7 7.63636 6.6802 7.63636 6.28571Z" fill="#1C1C1C"/>
<path fill-rule="evenodd" clip-rule="evenodd" d="M7.63636 9.85714C7.63636 9.46265 7.96197 9.14286 8.36364 9.14286H15.6364C16.038 9.14286 16.3636 9.46265 16.3636 9.85714C16.3636 10.2516 16.038 10.5714 15.6364 10.5714H8.36364C7.96197 10.5714 7.63636 10.2516 7.63636 9.85714Z" fill="#1C1C1C"/>
<path fill-rule="evenodd" clip-rule="evenodd" d="M7.63636 13.4286C7.63636 13.0341 7.96197 12.7143 8.36364 12.7143H12C12.4017 12.7143 12.7273 13.0341 12.7273 13.4286C12.7273 13.8231 12.4017 14.1429 12 14.1429H8.36364C7.96197 14.1429 7.63636 13.8231 7.63636 13.4286Z" fill="#1C1C1C"/>
</svg>
