<svg width="24" height="24" viewBox="0 0 24 24" fill="none" xmlns="http://www.w3.org/2000/svg">
<path fill-rule="evenodd" clip-rule="evenodd" d="M7 9.46454C7 6.42202 9.26319 4 12 4C14.7368 4 17 6.42202 17 9.46454C17 11.1798 16.1886 13.3019 15.2997 15.1362C14.3975 16.9979 13.3585 18.6752 12.8013 19.5352C12.7094 19.6789 12.5891 19.7958 12.4503 19.8766C12.3108 19.9577 12.1565 20 12 20C11.8435 20 11.6892 19.9577 11.5497 19.8766C11.4108 19.7958 11.2906 19.6789 11.1987 19.5352C10.6415 18.6748 9.60248 16.9969 8.70029 15.1349C7.81146 13.3005 7 11.1786 7 9.46454ZM12 5.14291C9.76806 5.14291 8 7.10609 8 9.46454C8 10.8578 8.68854 12.7515 9.5751 14.5812C10.4459 16.3785 11.4546 18.009 12 18.8515C12.5454 18.0094 13.5541 16.3794 14.4249 14.5824C15.3114 12.753 16 10.8591 16 9.46454C16 7.10609 14.2319 5.14291 12 5.14291Z" fill="#1C1C1C"/>
<path fill-rule="evenodd" clip-rule="evenodd" d="M12 8.57164C11.4477 8.57164 11 9.08334 11 9.71455C11 10.3458 11.4477 10.8575 12 10.8575C12.5523 10.8575 13 10.3458 13 9.71455C13 9.08334 12.5523 8.57164 12 8.57164ZM10 9.71455C10 8.45213 10.8954 7.42873 12 7.42873C13.1046 7.42873 14 8.45213 14 9.71455C14 10.977 13.1046 12.0004 12 12.0004C10.8954 12.0004 10 10.977 10 9.71455Z" fill="#1C1C1C"/>
</svg>
