<svg width="98" height="15" viewBox="0 0 98 15" fill="none" xmlns="http://www.w3.org/2000/svg">
<path d="M7.36 6.32L12.5 0.7H8.54L3.2 6.96V0.7H0.16V14H3.2V10.86L5.32 8.54L8.96 14H12.6V13.84L7.36 6.32ZM16.5203 14.26C18.5603 14.26 19.7603 13.24 20.2203 11.86C20.2203 12.68 20.2803 13.34 20.3803 14H22.9603C22.8603 13.14 22.8003 12.34 22.8003 11.4V7.08C22.8003 4.96 21.3203 3.66 18.2803 3.66C15.2403 3.66 13.4803 5.12 13.4003 7.26H16.3003C16.3403 6.24 16.9803 5.7 18.3403 5.7C19.6803 5.7 20.0803 6.16 20.0803 6.86C20.0803 7.44 19.7603 7.7 18.8403 7.86L16.4803 8.26C13.9003 8.7 13.2003 9.74 13.2003 11.34C13.2003 13.14 14.5003 14.26 16.5203 14.26ZM17.5203 12.24C16.7203 12.24 16.1203 11.84 16.1203 11.04C16.1203 10.28 16.5403 9.9 17.6003 9.64L18.4403 9.44C19.0603 9.3 19.5603 9.16 20.0803 8.8V9.24C20.0803 11.1 19.0803 12.24 17.5203 12.24ZM24.9256 14H27.8856V-9.53674e-07H24.9256V14ZM30.0395 2.68H33.2595V0.7H30.0395V2.68ZM30.1795 14H33.1395V4H30.1795V14ZM41.9134 3.68C40.1934 3.68 39.0534 4.34 38.3534 5.46V-9.53674e-07H35.3934V14H38.3534V12.56C39.0534 13.66 40.1934 14.32 41.9134 14.32C45.1934 14.32 46.5334 11.88 46.5334 8.98C46.5334 6.14 45.1934 3.68 41.9134 3.68ZM41.0134 12C39.1334 12 38.3534 11.04 38.3534 9C38.3534 6.96 39.1334 6 41.0134 6C42.8934 6 43.5534 6.92 43.5534 9C43.5534 11.06 42.8934 12 41.0134 12ZM54.225 3.84C52.545 3.84 51.645 4.72 51.165 6.14V4H48.285V14H51.245V10.06C51.245 7.8 51.925 6.72 53.905 6.72H54.885V3.84H54.225ZM61.1784 14.32C65.1784 14.32 66.7184 11.76 66.7184 8.98C66.7184 6.24 65.1784 3.68 61.1784 3.68C57.1984 3.68 55.6384 6.22 55.6384 8.98C55.6384 11.78 57.1984 14.32 61.1784 14.32ZM58.6184 9C58.6184 6.78 59.3784 6 61.1784 6C62.9984 6 63.7584 6.78 63.7584 9C63.7584 11.22 62.9984 12 61.1784 12C59.3784 12 58.6184 11.22 58.6184 9ZM73.5027 14.32C77.5027 14.32 79.0427 11.76 79.0427 8.98C79.0427 6.24 77.5027 3.68 73.5027 3.68C69.5227 3.68 67.9627 6.22 67.9627 8.98C67.9627 11.78 69.5227 14.32 73.5027 14.32ZM70.9427 9C70.9427 6.78 71.7027 6 73.5027 6C75.3227 6 76.0827 6.78 76.0827 9C76.0827 11.22 75.3227 12 73.5027 12C71.7027 12 70.9427 11.22 70.9427 9ZM93.9864 3.68C92.1064 3.68 91.0064 4.62 90.4064 6C89.9664 4.52 88.8864 3.68 87.1064 3.68C85.3664 3.68 84.2864 4.54 83.6864 5.82V4H80.7264V14H83.6864V9.46C83.6864 7.08 84.4464 6.08 85.9464 6.08C87.1464 6.08 87.7464 6.78 87.7464 8.28V14H90.6464V9.46C90.6464 7.08 91.4064 6.08 92.9064 6.08C94.1064 6.08 94.7064 6.78 94.7064 8.28V14H97.6664V7.86C97.6664 5.24 96.5264 3.68 93.9864 3.68Z" fill="#252525"/>
</svg>
