<svg width="20" height="20" viewBox="0 0 20 20" fill="none" xmlns="http://www.w3.org/2000/svg">
<rect width="20" height="20" rx="3" fill="white"/>
<path fill-rule="evenodd" clip-rule="evenodd" d="M14 2.6671C14 3.1887 13.5772 3.61155 13.0556 3.61155C12.534 3.61155 12.1111 3.1887 12.1111 2.6671C12.1111 2.1455 12.534 1.72266 13.0556 1.72266C13.5772 1.72266 14 2.1455 14 2.6671ZM6.91667 10.2227C6.65587 10.2227 6.44444 10.0112 6.44444 9.75043C6.44444 9.48963 6.65587 9.27821 6.91667 9.27821H13.5278C13.7886 9.27821 14 9.48963 14 9.75043C14 10.0112 13.7886 10.2227 13.5278 10.2227H6.91667ZM5.5 10.6949C5.5 10.4341 5.71142 10.2227 5.97222 10.2227C6.23302 10.2227 6.44444 10.4341 6.44444 10.6949V17.306C6.44444 17.5668 6.23302 17.7782 5.97222 17.7782C5.71142 17.7782 5.5 17.5668 5.5 17.306V10.6949ZM13.5278 17.7782C13.7886 17.7782 14 17.5668 14 17.306L14 11.1671C14 10.9063 13.7886 10.6949 13.5278 10.6949C13.267 10.6949 13.0556 10.9063 13.0556 11.1671L13.0556 17.306C13.0556 17.5668 13.267 17.7782 13.5278 17.7782ZM5.97222 1.72266C5.71142 1.72266 5.5 1.93408 5.5 2.19488V8.80599C5.5 9.06679 5.71142 9.27821 5.97222 9.27821C6.23302 9.27821 6.44444 9.06679 6.44444 8.80599V2.19488C6.44444 1.93408 6.23302 1.72266 5.97222 1.72266Z" fill="#1C1C1C"/>
</svg>
