<svg width="42" height="42" viewBox="0 0 42 42" fill="none" xmlns="http://www.w3.org/2000/svg">
<path fill-rule="evenodd" clip-rule="evenodd" d="M21.0004 30.4345C19.268 31.8259 17.1875 32.6912 14.9966 32.9315C12.8057 33.1718 10.5928 32.7773 8.61092 31.7932C6.62902 30.8091 4.95805 29.2751 3.789 27.3665C2.61996 25.4579 2 23.2516 2 21C2 18.7483 2.61996 16.5421 3.789 14.6335C4.95805 12.7249 6.62902 11.1909 8.61092 10.2068C10.5928 9.22268 12.8057 8.82824 14.9966 9.06853C17.1875 9.30882 19.268 10.1741 21.0003 11.5655C22.7326 10.1741 24.8131 9.30881 27.0039 9.06853C29.1948 8.82824 31.4076 9.22269 33.3895 10.2068C35.3713 11.1909 37.0423 12.7249 38.2112 14.6335C39.3802 16.5421 40.0001 18.7483 40 21C40.0001 23.2516 39.3802 25.4578 38.2112 27.3664C37.0423 29.275 35.3713 30.809 33.3895 31.7931C31.4076 32.7772 29.1948 33.1717 27.0039 32.9314C24.8131 32.6911 22.7327 31.8258 21.0004 30.4345ZM16.5152 21C16.5136 19.1828 16.9166 17.389 17.6936 15.7545C18.4707 14.12 19.6015 12.6876 21.0003 11.5657C22.398 12.6888 23.5278 14.1214 24.3048 15.7556C25.0817 17.3899 25.4854 19.183 25.4854 21C25.4854 22.8169 25.0817 24.6101 24.3048 26.2443C23.5278 27.8785 22.3979 29.3112 21.0003 30.4342C19.6014 29.3123 18.4707 27.8799 17.6936 26.2455C16.9166 24.611 16.5136 22.8172 16.5152 21ZM22.9216 30.307C24.2059 31.0759 25.6399 31.5614 27.1306 31.7249C29.1 31.9408 31.089 31.5863 32.8705 30.7017C34.6519 29.8171 36.1539 28.4382 37.2046 26.7226C38.2554 25.007 38.8126 23.0239 38.8125 21C38.8126 18.9761 38.2554 16.9929 37.2046 15.2773C36.1539 13.5617 34.6519 12.1828 32.8705 11.2982C31.089 10.4136 29.1 10.0591 27.1306 10.2751C25.6399 10.4386 24.2059 10.924 22.9216 11.6929C23.9207 12.722 24.7499 13.9148 25.3729 15.2254C26.2284 17.0249 26.6729 18.9993 26.6729 21C26.6729 23.0006 26.2284 24.9751 25.3729 26.7746C24.7499 28.0851 23.9207 29.2779 22.9216 30.307Z" fill="#3E3D3D"/>
<path d="M38.88 28.0491V28.4354H38.7968V28.0491H38.6443V27.9704H39.0325V28.0491H38.88Z" fill="#3E3D3D"/>
<path d="M39.6337 27.9697V28.4354H39.5498V28.0833L39.4214 28.387H39.3343L39.2059 28.0841V28.4354H39.1219V27.9697H39.241L39.3779 28.29L39.5147 27.9697H39.6337Z" fill="#3E3D3D"/>
</svg>
