<svg width="24" height="24" viewBox="0 0 24 24" fill="none" xmlns="http://www.w3.org/2000/svg">
<path fill-rule="evenodd" clip-rule="evenodd" d="M9.24029 3.18832C9.42711 3.37515 9.48059 3.65726 9.37512 3.8995C8.95982 4.85337 8.78571 6.00379 8.78571 7.17859C8.78571 11.6164 12.3836 15.2143 16.8214 15.2143C17.9962 15.2143 19.1466 15.0402 20.1005 14.6249C20.3427 14.5194 20.6248 14.5729 20.8117 14.7597C20.9985 14.9465 21.052 15.2286 20.9466 15.4709C19.505 18.7825 16.1334 21 12.3214 21C7.17348 21 3 16.8265 3 11.6786C3 7.8666 5.21746 4.49501 8.52913 3.05344C8.77138 2.94799 9.05348 3.0015 9.24029 3.18832ZM7.70511 4.98303C5.62266 6.44421 4.28571 8.91782 4.28571 11.6786C4.28571 16.1164 7.88356 19.7143 12.3214 19.7143C15.0822 19.7143 17.5558 18.3773 19.017 16.2949C18.2953 16.4396 17.5497 16.5 16.8214 16.5C11.6735 16.5 7.49999 12.3265 7.49999 7.17859C7.49999 6.45033 7.56041 5.70471 7.70511 4.98303Z" fill="#1C1C1C"/>
</svg>
