<svg width="24" height="24" viewBox="0 0 24 24" fill="none" xmlns="http://www.w3.org/2000/svg">
<rect width="24" height="24" rx="12" fill="#6B6B6B"/>
<path fill-rule="evenodd" clip-rule="evenodd" d="M8.27738 5.22205C8.3822 5.30438 8.49993 5.41513 8.63538 5.54891C8.92557 5.83451 9.26223 6.29208 9.55111 6.73135C9.84322 7.17554 10.1139 7.64314 10.2656 7.96861L10.2657 7.96881L10.2658 7.96902C10.3518 8.15394 10.4293 8.32152 10.4838 8.46839C10.5391 8.61754 10.5851 8.78159 10.5854 8.96062C10.586 9.33537 10.3826 9.6246 10.1867 9.89137C10.1304 9.968 10.0826 10.0308 10.0413 10.0849C9.95248 10.2016 9.89423 10.2781 9.8476 10.3665C9.80211 10.4528 9.78884 10.5151 9.81037 10.6154C9.84141 10.76 9.97638 11.0766 10.2385 11.4907C10.4919 11.8912 10.8389 12.3429 11.2535 12.7562C11.6681 13.1694 12.1126 13.5072 12.5051 13.7517C12.9096 14.0036 13.221 14.1329 13.3698 14.1647C13.4734 14.1867 13.538 14.1729 13.6245 14.1279C13.7157 14.0804 13.7968 14.0185 13.923 13.9222C13.9726 13.8843 14.0291 13.8411 14.096 13.7915L14.0961 13.7914L14.1011 13.7876C14.3688 13.5887 14.6662 13.3678 15.0432 13.3682C15.2295 13.3684 15.3967 13.421 15.5439 13.4811C15.6845 13.5385 15.8461 13.6199 16.0233 13.7091L16.0381 13.7166C16.3488 13.8732 16.8107 14.1386 17.2578 14.4279C17.697 14.712 18.1605 15.0437 18.4491 15.3345L18.4495 15.3349C18.5837 15.4704 18.6947 15.5882 18.7773 15.6929C18.8571 15.7944 18.9448 15.9256 18.9818 16.0888C19.0235 16.2726 18.9857 16.4256 18.947 16.5317C18.9295 16.5795 18.909 16.6254 18.8942 16.6583C18.8919 16.6634 18.8896 16.6684 18.8874 16.6733C18.8737 16.7037 18.8617 16.7303 18.849 16.7607L18.8487 16.7615L18.8484 16.7622C18.7178 17.0719 18.5589 17.3689 18.3737 17.6495L18.3732 17.6503L18.3726 17.6512C18.0109 18.1946 17.6706 18.5497 17.1416 18.7961C16.8667 18.9241 16.474 19.0534 15.8636 18.9773C15.2765 18.9041 14.5127 18.6442 13.4703 18.0604L13.47 18.0602C11.8019 17.1247 10.6444 16.3181 9.15127 14.8292C7.66253 13.3447 6.93078 12.3758 5.90571 10.5137C4.87376 8.63904 4.87524 7.483 5.16994 6.85328C5.41738 6.32455 5.77602 5.98583 6.31767 5.62598L6.31873 5.62528L6.31981 5.62457C6.60068 5.44004 6.89786 5.28162 7.20763 5.15129L7.20865 5.15086L7.20967 5.15043C7.24033 5.13769 7.26714 5.12568 7.2978 5.11193C7.3026 5.10978 7.30751 5.10758 7.31253 5.10533C7.34547 5.09059 7.39141 5.0701 7.43921 5.05274C7.54515 5.01425 7.69781 4.97666 7.88131 5.01804C8.04447 5.05483 8.17573 5.14222 8.27738 5.22205ZM7.5945 6.07338C7.34173 6.1798 7.09922 6.30907 6.86997 6.45959C6.41239 6.76371 6.21623 6.97674 6.07566 7.27712C5.98224 7.47674 5.80935 8.265 6.78175 10.0315C7.76104 11.8104 8.43552 12.7033 9.85738 14.1212C11.2748 15.5346 12.3554 16.2886 13.9589 17.1879C14.9402 17.7375 15.5764 17.9338 15.9873 17.985C16.375 18.0334 16.5783 17.9553 16.7194 17.8896C17.0221 17.7486 17.2361 17.5538 17.5397 17.0978C17.6906 16.869 17.8202 16.6268 17.9267 16.3742C17.9411 16.3399 17.9552 16.3081 17.9671 16.2816C17.9205 16.2262 17.8491 16.1497 17.7392 16.0387C17.5315 15.8295 17.146 15.5465 16.7146 15.2674C16.2911 14.9934 15.8606 14.747 15.5881 14.6096C15.3914 14.5105 15.2654 14.4474 15.1659 14.4068C15.0692 14.3674 15.0411 14.3681 15.0422 14.3681C15.0512 14.3681 15.0203 14.3505 14.6924 14.5941C14.6589 14.619 14.6227 14.6467 14.5844 14.6761C14.4383 14.7881 14.2615 14.9237 14.0862 15.0149C13.8243 15.1512 13.5236 15.2199 13.1612 15.1426C12.8441 15.075 12.4163 14.8745 11.9764 14.6005C11.5246 14.319 11.0196 13.9349 10.5476 13.4644C10.0756 12.9939 9.68297 12.4829 9.39346 12.0254C9.11258 11.5816 8.9013 11.145 8.83265 10.8253C8.7545 10.4612 8.82575 10.1606 8.963 9.90024C9.05144 9.73247 9.18365 9.55913 9.29247 9.41646C9.32448 9.37449 9.35447 9.33517 9.38073 9.29942C9.59092 9.01324 9.58598 8.96762 9.58544 8.96265C9.58543 8.96248 9.58541 8.96236 9.58541 8.96228C9.5854 8.95264 9.58317 8.91573 9.54624 8.81616C9.50846 8.71433 9.44966 8.58546 9.35912 8.39077C9.23548 8.12561 8.99313 7.70279 8.71559 7.28078C8.43484 6.85388 8.14528 6.46951 7.93368 6.26135L7.93332 6.261L7.93297 6.26064C7.82132 6.15036 7.74453 6.07889 7.68909 6.03237C7.66215 6.04441 7.62969 6.05874 7.5945 6.07338Z" fill="white"/>
</svg>
