<svg width="24" height="25" viewBox="0 0 24 25" fill="none" xmlns="http://www.w3.org/2000/svg">
<path d="M12 5.5C8.13906 5.5 5 8.63906 5 12.5C5 16.3609 8.13906 19.5 12 19.5C15.8609 19.5 19 16.3609 19 12.5C19 8.63906 15.8609 5.5 12 5.5ZM12 18.3333C8.78438 18.3333 6.16667 15.7156 6.16667 12.5C6.16667 9.28438 8.78438 6.66667 12 6.66667C15.2156 6.66667 17.8333 9.28438 17.8333 12.5C17.8333 15.7156 15.2156 18.3333 12 18.3333Z" fill="#6B6B6B"/>
<path d="M13.185 8.62814C12.8933 8.48959 12.4594 8.41303 12.0001 8.41668C11.3402 8.40574 10.7058 8.63543 10.2209 9.06928C9.77976 9.46303 9.49903 9.98074 9.44798 10.4912C9.41882 10.7719 9.62298 11.0234 9.90371 11.049C10.1844 11.0781 10.436 10.874 10.4615 10.5932C10.5089 10.1083 11.0813 9.41928 11.9855 9.43751H12.0001C12.3391 9.43386 12.6162 9.4922 12.7402 9.55053C13.5313 9.9224 13.5313 10.4219 13.5313 10.5859C13.5313 11.2458 13.1339 11.5448 12.4303 12.0151C11.6756 12.5219 11.3074 13.1599 11.3074 13.9583C11.3074 14.2391 11.537 14.4688 11.8178 14.4688C12.0985 14.4688 12.3282 14.2391 12.3282 13.9583C12.3282 13.6229 12.4084 13.2583 12.999 12.8646C13.6917 12.4016 14.5522 11.8255 14.5522 10.5896C14.5522 9.74376 14.0673 9.04741 13.185 8.62814Z" fill="#6B6B6B"/>
<path d="M11.7812 16.5833C12.184 16.5833 12.5104 16.2569 12.5104 15.8542C12.5104 15.4515 12.184 15.125 11.7812 15.125C11.3785 15.125 11.0521 15.4515 11.0521 15.8542C11.0521 16.2569 11.3785 16.5833 11.7812 16.5833Z" fill="#6B6B6B"/>
</svg>
