<svg width="24" height="24" viewBox="0 0 24 24" fill="none" xmlns="http://www.w3.org/2000/svg">
<path fill-rule="evenodd" clip-rule="evenodd" d="M6.32855 4.2622C7.56018 3.43925 9.0082 3 10.4895 3H10.4895C12.4758 3.00013 14.3807 3.78923 15.7852 5.19374C17.1897 6.59825 17.9788 8.50315 17.9789 10.4894V10.4895C17.9789 11.9707 17.5397 13.4188 16.7167 14.6504C16.5723 14.8666 16.4172 15.0744 16.2522 15.2731L20.7972 19.8182C21.0676 20.0885 21.0676 20.5269 20.7972 20.7972C20.5269 21.0676 20.0885 21.0676 19.8182 20.7972L15.2731 16.2522C14.6986 16.7291 14.0529 17.12 13.3556 17.4088C11.987 17.9757 10.4812 18.124 9.02835 17.835C7.57554 17.5461 6.24104 16.8327 5.19362 15.7853C4.1462 14.7379 3.43289 13.4034 3.14391 11.9506C2.85493 10.4978 3.00325 8.9919 3.57011 7.62337C4.13697 6.25485 5.09691 5.08516 6.32855 4.2622ZM10.4894 4.38462C9.28202 4.38462 8.10172 4.74267 7.0978 5.41347C6.09386 6.08428 5.31138 7.03773 4.84932 8.15324C4.38726 9.26876 4.26636 10.4962 4.50192 11.6805C4.73748 12.8647 5.31891 13.9525 6.17269 14.8063C7.02647 15.66 8.11425 16.2415 9.29848 16.477C10.4827 16.7126 11.7102 16.5917 12.8257 16.1296C13.9412 15.6676 14.8947 14.8851 15.5655 13.8811C16.2363 12.8772 16.5943 11.6969 16.5943 10.4895M10.4895 4.38462C12.1085 4.38473 13.6613 5.02796 14.8061 6.17281C15.951 7.31767 16.5942 8.8704 16.5943 10.4895" fill="#1C1C1C"/>
</svg>
