<svg width="20" height="20" viewBox="0 0 20 20" fill="none" xmlns="http://www.w3.org/2000/svg">
<path fill-rule="evenodd" clip-rule="evenodd" d="M4.32855 2.2622C5.56018 1.43925 7.0082 1 8.48947 1H8.48952C10.4758 1.00013 12.3807 1.78923 13.7852 3.19374C15.1897 4.59825 15.9788 6.50315 15.9789 8.48943V8.48947C15.9789 9.97075 15.5397 11.4188 14.7167 12.6504C14.5723 12.8666 14.4172 13.0744 14.2522 13.2731L18.7972 17.8182C19.0676 18.0885 19.0676 18.5269 18.7972 18.7972C18.5269 19.0676 18.0885 19.0676 17.8182 18.7972L13.2731 14.2522C12.6986 14.7291 12.0529 15.12 11.3556 15.4088C9.98705 15.9757 8.48117 16.124 7.02835 15.835C5.57554 15.5461 4.24104 14.8327 3.19362 13.7853C2.1462 12.7379 1.43289 11.4034 1.14391 9.95059C0.854929 8.49778 1.00325 6.9919 1.57011 5.62337C2.13697 4.25485 3.09691 3.08516 4.32855 2.2622ZM8.48943 2.38462C7.28202 2.38462 6.10172 2.74267 5.0978 3.41347C4.09386 4.08428 3.31138 5.03773 2.84932 6.15324C2.38726 7.26876 2.26636 8.49624 2.50192 9.68047C2.73748 10.8647 3.31891 11.9525 4.17269 12.8063C5.02647 13.66 6.11425 14.2415 7.29848 14.477C8.4827 14.7126 9.71018 14.5917 10.8257 14.1296C11.9412 13.6676 12.8947 12.8851 13.5655 11.8811C14.2363 10.8772 14.5943 9.69693 14.5943 8.48952M8.48947 2.38462C10.1085 2.38473 11.6613 3.02796 12.8061 4.17281C13.951 5.31767 14.5942 6.8704 14.5943 8.48947" fill="#6B6B6B"/>
</svg>
