<svg width="20" height="20" viewBox="0 0 20 20" fill="none" xmlns="http://www.w3.org/2000/svg">
<path fill-rule="evenodd" clip-rule="evenodd" d="M5.27379 3.55184C6.30015 2.86604 7.50683 2.5 8.74123 2.5H8.74126C10.3965 2.50011 11.9839 3.15769 13.1543 4.32812C14.3248 5.49855 14.9823 7.08596 14.9825 8.74119V8.74123C14.9825 9.97562 14.6164 11.1823 13.9306 12.2087C13.8103 12.3888 13.681 12.562 13.5435 12.7276L17.331 16.5151C17.5563 16.7404 17.5563 17.1057 17.331 17.331C17.1057 17.5563 16.7404 17.5563 16.5151 17.331L12.7276 13.5435C12.2488 13.9409 11.7107 14.2667 11.1296 14.5074C9.98921 14.9797 8.7343 15.1033 7.52363 14.8625C6.31295 14.6217 5.20087 14.0273 4.32802 13.1544C3.45516 12.2816 2.86075 11.1695 2.61993 9.95883C2.37911 8.74815 2.5027 7.49325 2.97509 6.35281C3.44747 5.21238 4.24742 4.23763 5.27379 3.55184ZM8.74119 3.65385C7.73501 3.65385 6.75144 3.95222 5.91483 4.51122C5.07822 5.07023 4.42615 5.86477 4.0411 6.79437C3.65605 7.72397 3.5553 8.74687 3.7516 9.73372C3.9479 10.7206 4.43243 11.6271 5.14391 12.3385C5.85539 13.05 6.76187 13.5346 7.74873 13.7309C8.73558 13.9272 9.75849 13.8264 10.6881 13.4414C11.6177 13.0563 12.4122 12.4042 12.9712 11.5676C13.5302 10.731 13.8286 9.74744 13.8286 8.74126M8.74123 3.65385C10.0905 3.65394 11.3844 4.18996 12.3384 5.14401C13.2925 6.09806 13.8285 7.392 13.8286 8.74123" fill="#989898"/>
</svg>
