<svg width="24" height="24" viewBox="0 0 24 24" fill="none" xmlns="http://www.w3.org/2000/svg">
<path d="M16.0246 17.9987C15.9263 17.9991 15.8305 17.9709 15.7507 17.9184L11.9993 15.4212L8.24788 17.9184C8.16773 17.9717 8.07118 18.0003 7.97217 18C7.87316 17.9997 7.77684 17.9704 7.69711 17.9165C7.61739 17.8626 7.55841 17.7868 7.52869 17.7001C7.49897 17.6134 7.50005 17.5203 7.53179 17.4341L8.99489 13.4552L5.20295 11.0675C5.12082 11.0159 5.05883 10.9415 5.02604 10.8552C4.99325 10.7688 4.99138 10.6752 5.0207 10.5878C5.05003 10.5005 5.10901 10.424 5.18903 10.3696C5.26905 10.3152 5.36592 10.2858 5.46547 10.2855H10.1436L11.5553 6.29635C11.5857 6.21022 11.6451 6.13516 11.7248 6.08192C11.8046 6.02868 11.9007 6 11.9993 6C12.0979 6 12.194 6.02868 12.2737 6.08192C12.3535 6.13516 12.4128 6.21022 12.4432 6.29635L13.855 10.2869H18.5331C18.6328 10.2868 18.7298 10.3161 18.8101 10.3704C18.8903 10.4246 18.9496 10.5011 18.9791 10.5885C19.0086 10.6759 19.0068 10.7697 18.9741 10.8562C18.9413 10.9426 18.8793 11.0172 18.797 11.0689L15.0037 13.4552L16.4659 17.4331C16.4896 17.4975 16.4962 17.5661 16.4853 17.6334C16.4744 17.7006 16.4462 17.7645 16.4031 17.8198C16.36 17.875 16.3032 17.9201 16.2374 17.9512C16.1715 17.9823 16.0986 17.9986 16.0246 17.9987Z" fill="#1C1C1C"/>
</svg>
