<svg width="24" height="24" viewBox="0 0 24 24" fill="none" xmlns="http://www.w3.org/2000/svg">
<path d="M17.1744 19.9983C17.0481 19.9988 16.9249 19.9613 16.8223 19.8912L11.9991 16.5616L7.17585 19.8912C7.0728 19.9623 6.94866 20.0004 6.82136 20C6.69407 19.9996 6.57022 19.9606 6.46772 19.8887C6.36522 19.8168 6.28938 19.7158 6.25117 19.6002C6.21296 19.4845 6.21436 19.3603 6.25515 19.2455L8.13629 13.9402L3.26094 10.7567C3.15534 10.6879 3.07564 10.5886 3.03348 10.4735C2.99132 10.3585 2.98892 10.2336 3.02662 10.1171C3.06432 10.0006 3.14016 9.89866 3.24304 9.82615C3.34592 9.75363 3.47046 9.71434 3.59847 9.71402H9.61314L11.4283 4.39513C11.4674 4.2803 11.5437 4.18021 11.6462 4.10922C11.7488 4.03824 11.8723 4 11.9991 4C12.1258 4 12.2494 4.03824 12.3519 4.10922C12.4545 4.18021 12.5308 4.2803 12.5699 4.39513L14.385 9.71581H20.3997C20.5278 9.71575 20.6526 9.75476 20.7558 9.82714C20.859 9.89952 20.9352 10.0015 20.9731 10.118C21.011 10.2346 21.0088 10.3596 20.9667 10.4749C20.9246 10.5902 20.8448 10.6896 20.7391 10.7585L15.8618 13.9402L17.7418 19.2441C17.7723 19.33 17.7809 19.4215 17.7668 19.5112C17.7528 19.6008 17.7166 19.686 17.6611 19.7597C17.6057 19.8333 17.5327 19.8934 17.448 19.9349C17.3634 19.9764 17.2696 19.9981 17.1744 19.9983Z" fill="white"/>
</svg>
