<svg width="24" height="24" viewBox="0 0 24 24" fill="none" xmlns="http://www.w3.org/2000/svg">
<path fill-rule="evenodd" clip-rule="evenodd" d="M12 3C12.355 3 12.6429 3.28782 12.6429 3.64286V5.57143C12.6429 5.92647 12.355 6.21429 12 6.21429C11.645 6.21429 11.3571 5.92647 11.3571 5.57143V3.64286C11.3571 3.28782 11.645 3 12 3Z" fill="white"/>
<path fill-rule="evenodd" clip-rule="evenodd" d="M12 17.7857C12.355 17.7857 12.6429 18.0735 12.6429 18.4286V20.3571C12.6429 20.7122 12.355 21 12 21C11.645 21 11.3571 20.7122 11.3571 20.3571V18.4286C11.3571 18.0735 11.645 17.7857 12 17.7857Z" fill="white"/>
<path fill-rule="evenodd" clip-rule="evenodd" d="M18.364 5.63597C18.6151 5.88702 18.6151 6.29405 18.364 6.5451L17.0004 7.90876C16.7493 8.15982 16.3423 8.15982 16.0912 7.90877C15.8402 7.65771 15.8402 7.25068 16.0912 6.99963L17.4549 5.63597C17.7059 5.38492 18.113 5.38492 18.364 5.63597Z" fill="white"/>
<path fill-rule="evenodd" clip-rule="evenodd" d="M7.90877 16.0912C8.15982 16.3423 8.15982 16.7493 7.90876 17.0004L6.5451 18.364C6.29405 18.6151 5.88702 18.6151 5.63597 18.364C5.38492 18.113 5.38492 17.7059 5.63597 17.4549L6.99963 16.0912C7.25068 15.8402 7.65771 15.8402 7.90877 16.0912Z" fill="white"/>
<path fill-rule="evenodd" clip-rule="evenodd" d="M17.7857 12C17.7857 11.645 18.0735 11.3571 18.4286 11.3571H20.3571C20.7122 11.3571 21 11.645 21 12C21 12.355 20.7122 12.6429 20.3571 12.6429H18.4286C18.0735 12.6429 17.7857 12.355 17.7857 12Z" fill="white"/>
<path fill-rule="evenodd" clip-rule="evenodd" d="M3 12C3 11.645 3.28782 11.3571 3.64286 11.3571H5.57143C5.92647 11.3571 6.21429 11.645 6.21429 12C6.21429 12.355 5.92647 12.6429 5.57143 12.6429H3.64286C3.28782 12.6429 3 12.355 3 12Z" fill="white"/>
<path fill-rule="evenodd" clip-rule="evenodd" d="M16.0912 16.0912C16.3423 15.8402 16.7493 15.8402 17.0004 16.0912L18.364 17.4549C18.6151 17.7059 18.6151 18.113 18.364 18.364C18.113 18.6151 17.7059 18.6151 17.4549 18.364L16.0912 17.0004C15.8402 16.7493 15.8402 16.3423 16.0912 16.0912Z" fill="white"/>
<path fill-rule="evenodd" clip-rule="evenodd" d="M5.63597 5.63597C5.88702 5.38492 6.29405 5.38492 6.5451 5.63597L7.90876 6.99963C8.15982 7.25068 8.15982 7.65771 7.90876 7.90876C7.65771 8.15982 7.25068 8.15982 6.99963 7.90876L5.63597 6.5451C5.38492 6.29405 5.38492 5.88702 5.63597 5.63597Z" fill="white"/>
<path fill-rule="evenodd" clip-rule="evenodd" d="M12 9.42857C10.5798 9.42857 9.42857 10.5798 9.42857 12C9.42857 13.4202 10.5798 14.5714 12 14.5714C13.4202 14.5714 14.5714 13.4202 14.5714 12C14.5714 10.5798 13.4202 9.42857 12 9.42857ZM8.14286 12C8.14286 9.86976 9.86976 8.14286 12 8.14286C14.1302 8.14286 15.8571 9.86976 15.8571 12C15.8571 14.1302 14.1302 15.8571 12 15.8571C9.86976 15.8571 8.14286 14.1302 8.14286 12Z" fill="white"/>
</svg>
