<svg width="28" height="28" viewBox="0 0 28 28" fill="none" xmlns="http://www.w3.org/2000/svg">
<path fill-rule="evenodd" clip-rule="evenodd" d="M3.64987 12.7489C10.0923 10.2087 14.3883 8.534 16.5378 7.72489C22.675 5.4147 23.9503 5.01339 24.7815 5.00014C24.9643 4.99723 25.3731 5.03823 25.6379 5.23267C25.8614 5.39685 25.9229 5.61863 25.9524 5.77429C25.9818 5.92995 26.0185 6.28455 25.9893 6.56163C25.6568 9.7241 24.2177 17.3986 23.4856 20.9406C23.1758 22.4394 22.5658 22.9419 21.9753 22.9911C20.6919 23.098 19.7174 22.2235 18.4744 21.4861C16.5294 20.3323 15.4305 19.614 13.5425 18.488C11.3606 17.1868 12.7751 16.4716 14.0185 15.3027C14.344 14.9969 19.9985 10.3423 20.1079 9.92001C20.1216 9.86721 20.1343 9.67036 20.0051 9.56642C19.8759 9.46247 19.6851 9.49802 19.5475 9.52629C19.3524 9.56636 16.2452 11.425 10.2258 15.1022C9.34386 15.6503 8.545 15.9174 7.82924 15.9034C7.04017 15.888 5.52233 15.4996 4.39397 15.1677C3.00999 14.7606 1.91003 14.5453 2.00581 13.8539C2.0557 13.4937 2.60372 13.1254 3.64987 12.7489Z" fill="#1C1C1C"/>
</svg>
