<svg width="20" height="20" viewBox="0 0 20 20" fill="none" xmlns="http://www.w3.org/2000/svg">
<path fill-rule="evenodd" clip-rule="evenodd" d="M2.5 10C2.5 5.85926 5.85926 2.5 10 2.5C14.1407 2.5 17.5 5.85926 17.5 10C17.5 14.1407 14.1407 17.5 10 17.5C5.85926 17.5 2.5 14.1407 2.5 10ZM10 3.65385C6.49651 3.65385 3.65385 6.49651 3.65385 10C3.65385 13.5035 6.49651 16.3462 10 16.3462C13.5035 16.3462 16.3462 13.5035 16.3462 10C16.3462 6.49651 13.5035 3.65385 10 3.65385Z" fill="#6B6B6B"/>
<path fill-rule="evenodd" clip-rule="evenodd" d="M10 4.80769C10.3186 4.80769 10.5769 5.06599 10.5769 5.38462V10H13.4615C13.7802 10 14.0385 10.2583 14.0385 10.5769C14.0385 10.8955 13.7802 11.1538 13.4615 11.1538H10C9.68137 11.1538 9.42308 10.8955 9.42308 10.5769V5.38462C9.42308 5.06599 9.68137 4.80769 10 4.80769Z" fill="#6B6B6B"/>
</svg>
