<svg width="42" height="42" viewBox="0 0 42 42" fill="none" xmlns="http://www.w3.org/2000/svg">
<path d="M20.8054 15.212L18.1331 26.8178H14.9007L17.5733 15.212H20.8054ZM34.4037 22.706L36.1049 18.3478L37.0839 22.706H34.4037ZM38.0112 26.8178H41L38.3889 15.212H35.632C35.0107 15.212 34.4869 15.5466 34.2551 16.0627L29.4052 26.8178H32.7998L33.4736 25.0845H37.6198L38.0112 26.8178ZM29.5736 23.0289C29.5876 19.9659 25.0154 19.7962 25.046 18.4276C25.0559 18.0118 25.483 17.5688 26.4165 17.4555C26.8793 17.4002 28.1565 17.3553 29.6042 17.975L30.1704 15.5129C29.3929 15.2516 28.3922 15 27.1471 15C23.9518 15 21.7041 16.5766 21.6861 18.8362C21.6656 20.507 23.2917 21.4387 24.5144 21.9952C25.775 22.564 26.1973 22.9287 26.1911 23.4369C26.1824 24.2155 25.186 24.5604 24.2581 24.5734C22.6322 24.5969 21.6897 24.1652 20.9386 23.8399L20.3519 26.3842C21.1083 26.7058 22.5021 26.9856 23.9453 27C27.3424 27 29.5634 25.4419 29.5736 23.0289ZM16.1868 15.212L10.9498 26.8178H7.53361L4.95625 17.5555C4.80001 16.9859 4.66372 16.7766 4.18855 16.5359C3.41129 16.1439 2.12823 15.7771 1 15.549L1.07643 15.212H6.57623C7.27678 15.212 7.90707 15.645 8.06752 16.3947L9.42898 23.1111L12.7912 15.212H16.1868Z" fill="#3E3D3D"/>
</svg>
