<svg width="28" height="28" viewBox="0 0 28 28" fill="none" xmlns="http://www.w3.org/2000/svg">
<path fill-rule="evenodd" clip-rule="evenodd" d="M25.4493 7.94799C25.6161 7.40154 25.4493 7 24.6553 7H22.0297C21.3621 7 21.0543 7.34687 20.8874 7.72936C20.8874 7.72936 19.5521 10.9261 17.6606 13.0025C17.0487 13.6036 16.7705 13.7949 16.4367 13.7949C16.2698 13.7949 16.0282 13.6036 16.0282 13.0572V7.94799C16.0282 7.29225 15.8345 7 15.2781 7H11.1521C10.7349 7 10.484 7.30435 10.484 7.59278C10.484 8.21441 11.4297 8.35777 11.5272 10.1064V13.9042C11.5272 14.7368 11.3741 14.8878 11.0403 14.8878C10.1502 14.8878 7.98507 11.6768 6.70093 8.00261C6.44927 7.28847 6.19686 7 5.52583 7H2.90022C2.15004 7 2 7.34687 2 7.72936C2 8.41244 2.89014 11.8004 6.14464 16.2812C8.31429 19.3412 11.3712 21 14.1528 21C15.8218 21 16.0283 20.6316 16.0283 19.997V17.6842C16.0283 16.9474 16.1864 16.8003 16.7149 16.8003C17.1043 16.8003 17.7719 16.9916 19.3296 18.467C21.1099 20.2156 21.4034 21 22.4047 21H25.0304C25.7805 21 26.1556 20.6316 25.9392 19.9045C25.7024 19.1799 24.8525 18.1286 23.7247 16.8823C23.1127 16.1719 22.1947 15.4069 21.9165 15.0243C21.5271 14.5326 21.6384 14.314 21.9165 13.8769C21.9165 13.8769 25.1155 9.45067 25.4493 7.94799Z" fill="#1C1C1C"/>
</svg>
