<svg width="28" height="28" viewBox="0 0 28 28" fill="none" xmlns="http://www.w3.org/2000/svg">
<path fill-rule="evenodd" clip-rule="evenodd" d="M3.69804 19.8392L2 26.0023L8.33499 24.3478C10.0805 25.2932 12.0457 25.7955 14.0466 25.7955H14.0525C20.6369 25.7955 26.0041 20.4597 26.0041 13.9007C26.0041 10.7217 24.7632 7.73171 22.5071 5.4863C20.2509 3.24089 17.2527 2 14.0525 2C7.46222 2 2.10093 7.33581 2.095 13.8948C2.095 15.9866 2.64715 18.037 3.69804 19.8392ZM10.2646 8.20429C10.4843 8.2102 10.7277 8.22201 10.9592 8.7361C11.1076 9.06672 11.3541 9.66763 11.5607 10.1713C11.7344 10.5948 11.8799 10.9495 11.9151 11.017C11.9923 11.1706 12.0398 11.3479 11.9389 11.5547C11.9269 11.5791 11.9157 11.6025 11.9048 11.625C11.8239 11.7929 11.7663 11.9124 11.6301 12.0688C11.5744 12.1327 11.5164 12.2029 11.4585 12.2728C11.3561 12.3966 11.2543 12.5196 11.167 12.6065C11.0127 12.7601 10.8524 12.9256 11.0305 13.2328C11.2086 13.5401 11.832 14.5505 12.7523 15.366C13.7416 16.2467 14.6019 16.6178 15.0368 16.8055C15.1213 16.8419 15.1897 16.8714 15.2399 16.8964C15.5487 17.05 15.7327 17.0264 15.9108 16.8196C16.089 16.6128 16.6827 15.9214 16.8905 15.6142C17.0924 15.3069 17.3002 15.3601 17.5851 15.4605C17.8701 15.5669 19.39 16.3114 19.6988 16.465C19.7596 16.4953 19.8165 16.5226 19.8693 16.5479C20.0843 16.651 20.2305 16.7211 20.2925 16.8255C20.3697 16.9555 20.3697 17.57 20.1144 18.2909C19.8531 19.0118 18.5885 19.7032 18.0245 19.7563C17.9705 19.7614 17.9168 19.7679 17.8616 19.7746C17.3392 19.8378 16.6762 19.918 14.3137 18.9882C11.4031 17.8437 9.48172 15.0043 9.09287 14.4297C9.06212 14.3842 9.04095 14.353 9.02964 14.3378C9.02761 14.3351 9.02542 14.3322 9.02307 14.329C8.84631 14.0925 7.76502 12.6457 7.76502 11.1529C7.76502 9.72476 8.4686 8.98122 8.78947 8.64212C8.80981 8.62064 8.8286 8.60077 8.84558 8.58246C9.13057 8.27519 9.46305 8.19838 9.67086 8.19838C9.87866 8.19838 10.0865 8.19838 10.2646 8.20429Z" fill="#1C1C1C"/>
</svg>
