<svg width="42" height="42" viewBox="0 0 42 42" fill="none" xmlns="http://www.w3.org/2000/svg">
<path d="M4.75559 16.001C4.73516 16.0013 4.71622 16.0016 4.69893 16.0017L1 16.0017V26H4.57436V20.1035H4.81404L6.80657 26H9.49582L11.4883 20.1078H11.728V26H15.3024V16.0017L11.7955 16.0017C11.7683 16.0017 11.7386 16.0014 11.7068 16.001C11.2074 15.9947 10.1773 15.9817 9.75 17.3036C9.4844 18.1251 8.99643 19.6605 8.28607 21.9098H8.01631C7.35392 19.7763 6.87121 18.2409 6.56818 17.3036C6.14009 15.9794 5.15761 15.9947 4.75559 16.001Z" fill="#3E3D3D"/>
<path d="M20.4351 21.8983V16.0017H16.7861V26H20.245C20.245 26 21.2953 25.9127 21.7658 24.9521L24.142 20.1035H24.4271V26H28.0761V16.0017H24.6172C24.6172 16.0017 23.6144 16.0847 23.144 17.0496L20.7202 21.8983H20.4351Z" fill="#3E3D3D"/>
<path d="M36.8115 23.0217C38.5812 23.0217 40.1797 22.0749 40.6887 20.753H29.5148V26H32.9848V23.0217H36.8115Z" fill="#3E3D3D"/>
<path d="M29.3329 16.0017H36.9789C39.9208 16.0017 41.3429 18.2832 40.9298 20.1332H33.7716C31.6064 20.1332 29.5148 18.2277 29.3329 16.0017Z" fill="#3E3D3D"/>
</svg>
